<mxfile host="Electron" modified="2024-03-19T20:33:27.289Z" agent="Mozilla/5.0 (Windows NT 10.0; Win64; x64) AppleWebKit/537.36 (KHTML, like Gecko) draw.io/24.0.4 Chrome/120.0.6099.109 Electron/28.1.0 Safari/537.36" etag="f8BWSh7qzBJ8BOZ1Nz5z" version="24.0.4" type="device">
  <diagram name="Page-1" id="SJpD3uGlfIqLk_RS-RN0">
    <mxGraphModel dx="2488" dy="691" grid="1" gridSize="10" guides="1" tooltips="1" connect="1" arrows="1" fold="1" page="1" pageScale="1" pageWidth="850" pageHeight="1100" math="0" shadow="0">
      <root>
        <mxCell id="0" />
        <mxCell id="1" parent="0" />
        <mxCell id="bw0vgnl-zwQ5R-v5_mr7-18" value="" style="edgeStyle=orthogonalEdgeStyle;rounded=0;orthogonalLoop=1;jettySize=auto;html=1;" edge="1" parent="1" source="bw0vgnl-zwQ5R-v5_mr7-3" target="bw0vgnl-zwQ5R-v5_mr7-6">
          <mxGeometry relative="1" as="geometry" />
        </mxCell>
        <mxCell id="bw0vgnl-zwQ5R-v5_mr7-32" value="" style="edgeStyle=orthogonalEdgeStyle;rounded=0;orthogonalLoop=1;jettySize=auto;html=1;" edge="1" parent="1" source="bw0vgnl-zwQ5R-v5_mr7-3" target="bw0vgnl-zwQ5R-v5_mr7-31">
          <mxGeometry relative="1" as="geometry" />
        </mxCell>
        <mxCell id="bw0vgnl-zwQ5R-v5_mr7-3" value="TaskManager" style="rounded=1;whiteSpace=wrap;html=1;fillColor=#e1d5e7;strokeColor=#9673a6;labelBackgroundColor=none;" vertex="1" parent="1">
          <mxGeometry x="120" y="80" width="120" height="40" as="geometry" />
        </mxCell>
        <mxCell id="bw0vgnl-zwQ5R-v5_mr7-16" value="" style="edgeStyle=orthogonalEdgeStyle;rounded=0;orthogonalLoop=1;jettySize=auto;html=1;" edge="1" parent="1" source="bw0vgnl-zwQ5R-v5_mr7-4" target="bw0vgnl-zwQ5R-v5_mr7-5">
          <mxGeometry relative="1" as="geometry" />
        </mxCell>
        <mxCell id="bw0vgnl-zwQ5R-v5_mr7-4" value="TaskRepository" style="rounded=1;whiteSpace=wrap;html=1;fillColor=#e1d5e7;strokeColor=#9673a6;labelBackgroundColor=none;" vertex="1" parent="1">
          <mxGeometry x="280" y="80" width="120" height="40" as="geometry" />
        </mxCell>
        <mxCell id="bw0vgnl-zwQ5R-v5_mr7-5" value="ITaskRepository" style="rounded=1;whiteSpace=wrap;html=1;fillColor=#d5e8d4;strokeColor=#82b366;labelBackgroundColor=none;" vertex="1" parent="1">
          <mxGeometry x="280" y="160" width="120" height="40" as="geometry" />
        </mxCell>
        <mxCell id="bw0vgnl-zwQ5R-v5_mr7-6" value="ITaskManager" style="rounded=1;whiteSpace=wrap;html=1;fillColor=#d5e8d4;strokeColor=#82b366;labelBackgroundColor=none;" vertex="1" parent="1">
          <mxGeometry x="120" y="160" width="120" height="40" as="geometry" />
        </mxCell>
        <mxCell id="bw0vgnl-zwQ5R-v5_mr7-11" value="" style="edgeStyle=orthogonalEdgeStyle;rounded=0;orthogonalLoop=1;jettySize=auto;html=1;" edge="1" parent="1" source="bw0vgnl-zwQ5R-v5_mr7-7" target="bw0vgnl-zwQ5R-v5_mr7-4">
          <mxGeometry relative="1" as="geometry" />
        </mxCell>
        <mxCell id="bw0vgnl-zwQ5R-v5_mr7-7" value="TaskContext" style="rounded=1;whiteSpace=wrap;html=1;fillColor=#e1d5e7;strokeColor=#9673a6;labelBackgroundColor=none;" vertex="1" parent="1">
          <mxGeometry x="440" y="80" width="120" height="40" as="geometry" />
        </mxCell>
        <mxCell id="bw0vgnl-zwQ5R-v5_mr7-10" value="" style="edgeStyle=orthogonalEdgeStyle;rounded=0;orthogonalLoop=1;jettySize=auto;html=1;" edge="1" parent="1" source="bw0vgnl-zwQ5R-v5_mr7-9" target="bw0vgnl-zwQ5R-v5_mr7-7">
          <mxGeometry relative="1" as="geometry" />
        </mxCell>
        <mxCell id="bw0vgnl-zwQ5R-v5_mr7-22" value="" style="edgeStyle=orthogonalEdgeStyle;rounded=0;orthogonalLoop=1;jettySize=auto;html=1;" edge="1" parent="1" source="bw0vgnl-zwQ5R-v5_mr7-9" target="bw0vgnl-zwQ5R-v5_mr7-21">
          <mxGeometry relative="1" as="geometry" />
        </mxCell>
        <mxCell id="bw0vgnl-zwQ5R-v5_mr7-9" value="" style="shape=cylinder3;whiteSpace=wrap;html=1;boundedLbl=1;backgroundOutline=1;size=15;" vertex="1" parent="1">
          <mxGeometry x="600" y="60" width="80" height="80" as="geometry" />
        </mxCell>
        <mxCell id="bw0vgnl-zwQ5R-v5_mr7-17" value="" style="endArrow=classic;html=1;rounded=0;entryX=1;entryY=0.5;entryDx=0;entryDy=0;exitX=0;exitY=0.5;exitDx=0;exitDy=0;" edge="1" parent="1" source="bw0vgnl-zwQ5R-v5_mr7-5" target="bw0vgnl-zwQ5R-v5_mr7-3">
          <mxGeometry width="50" height="50" relative="1" as="geometry">
            <mxPoint x="290" y="370" as="sourcePoint" />
            <mxPoint x="340" y="320" as="targetPoint" />
            <Array as="points">
              <mxPoint x="260" y="180" />
              <mxPoint x="260" y="100" />
            </Array>
          </mxGeometry>
        </mxCell>
        <mxCell id="bw0vgnl-zwQ5R-v5_mr7-19" value="DB" style="text;html=1;align=center;verticalAlign=middle;whiteSpace=wrap;rounded=0;fontSize=16;fontStyle=1" vertex="1" parent="1">
          <mxGeometry x="610" y="100" width="60" height="20" as="geometry" />
        </mxCell>
        <mxCell id="bw0vgnl-zwQ5R-v5_mr7-28" value="" style="edgeStyle=orthogonalEdgeStyle;rounded=0;orthogonalLoop=1;jettySize=auto;html=1;" edge="1" parent="1" source="bw0vgnl-zwQ5R-v5_mr7-21" target="bw0vgnl-zwQ5R-v5_mr7-25">
          <mxGeometry relative="1" as="geometry" />
        </mxCell>
        <mxCell id="bw0vgnl-zwQ5R-v5_mr7-21" value="Модели данных" style="rounded=1;whiteSpace=wrap;html=1;fillColor=#fff2cc;strokeColor=#d6b656;labelBackgroundColor=none;" vertex="1" parent="1">
          <mxGeometry x="580" y="160" width="120" height="40" as="geometry" />
        </mxCell>
        <mxCell id="bw0vgnl-zwQ5R-v5_mr7-25" value="Роль" style="rounded=1;whiteSpace=wrap;html=1;fillColor=#fff2cc;strokeColor=#d6b656;labelBackgroundColor=none;" vertex="1" parent="1">
          <mxGeometry x="580" y="240" width="120" height="40" as="geometry" />
        </mxCell>
        <mxCell id="bw0vgnl-zwQ5R-v5_mr7-26" value="Задача" style="rounded=1;whiteSpace=wrap;html=1;fillColor=#fff2cc;strokeColor=#d6b656;labelBackgroundColor=none;" vertex="1" parent="1">
          <mxGeometry x="720" y="240" width="120" height="40" as="geometry" />
        </mxCell>
        <mxCell id="bw0vgnl-zwQ5R-v5_mr7-27" value="Пользователь" style="rounded=1;whiteSpace=wrap;html=1;fillColor=#fff2cc;strokeColor=#d6b656;labelBackgroundColor=none;" vertex="1" parent="1">
          <mxGeometry x="440" y="240" width="120" height="40" as="geometry" />
        </mxCell>
        <mxCell id="bw0vgnl-zwQ5R-v5_mr7-29" value="" style="endArrow=classic;html=1;rounded=0;exitX=0;exitY=0.5;exitDx=0;exitDy=0;entryX=0.5;entryY=0;entryDx=0;entryDy=0;" edge="1" parent="1" source="bw0vgnl-zwQ5R-v5_mr7-21" target="bw0vgnl-zwQ5R-v5_mr7-27">
          <mxGeometry width="50" height="50" relative="1" as="geometry">
            <mxPoint x="480" y="290" as="sourcePoint" />
            <mxPoint x="530" y="240" as="targetPoint" />
            <Array as="points">
              <mxPoint x="500" y="180" />
            </Array>
          </mxGeometry>
        </mxCell>
        <mxCell id="bw0vgnl-zwQ5R-v5_mr7-30" value="" style="endArrow=classic;html=1;rounded=0;exitX=1;exitY=0.5;exitDx=0;exitDy=0;entryX=0.5;entryY=0;entryDx=0;entryDy=0;" edge="1" parent="1" source="bw0vgnl-zwQ5R-v5_mr7-21" target="bw0vgnl-zwQ5R-v5_mr7-26">
          <mxGeometry width="50" height="50" relative="1" as="geometry">
            <mxPoint x="480" y="290" as="sourcePoint" />
            <mxPoint x="530" y="240" as="targetPoint" />
            <Array as="points">
              <mxPoint x="780" y="180" />
            </Array>
          </mxGeometry>
        </mxCell>
        <mxCell id="bw0vgnl-zwQ5R-v5_mr7-31" value="Program.cs" style="rounded=1;whiteSpace=wrap;html=1;fillColor=#f8cecc;strokeColor=#b85450;labelBackgroundColor=none;" vertex="1" parent="1">
          <mxGeometry x="-40" y="80" width="120" height="40" as="geometry" />
        </mxCell>
        <mxCell id="bw0vgnl-zwQ5R-v5_mr7-33" value="Backend" style="rounded=1;whiteSpace=wrap;html=1;fillColor=#f5f5f5;strokeColor=#666666;labelBackgroundColor=none;fontColor=#333333;" vertex="1" parent="1">
          <mxGeometry x="-40" y="240" width="120" height="40" as="geometry" />
        </mxCell>
        <mxCell id="bw0vgnl-zwQ5R-v5_mr7-34" value="" style="endArrow=classic;html=1;rounded=0;exitX=0.5;exitY=1;exitDx=0;exitDy=0;entryX=0.5;entryY=0;entryDx=0;entryDy=0;" edge="1" parent="1" source="bw0vgnl-zwQ5R-v5_mr7-31" target="bw0vgnl-zwQ5R-v5_mr7-33">
          <mxGeometry width="50" height="50" relative="1" as="geometry">
            <mxPoint x="270" y="290" as="sourcePoint" />
            <mxPoint x="320" y="240" as="targetPoint" />
          </mxGeometry>
        </mxCell>
        <mxCell id="bw0vgnl-zwQ5R-v5_mr7-38" value="" style="edgeStyle=orthogonalEdgeStyle;rounded=0;orthogonalLoop=1;jettySize=auto;html=1;" edge="1" parent="1" source="bw0vgnl-zwQ5R-v5_mr7-35" target="bw0vgnl-zwQ5R-v5_mr7-37">
          <mxGeometry relative="1" as="geometry" />
        </mxCell>
        <mxCell id="bw0vgnl-zwQ5R-v5_mr7-35" value="API" style="rounded=1;whiteSpace=wrap;html=1;fillColor=#f8cecc;strokeColor=#b85450;labelBackgroundColor=none;" vertex="1" parent="1">
          <mxGeometry x="-40" y="520" width="120" height="40" as="geometry" />
        </mxCell>
        <mxCell id="bw0vgnl-zwQ5R-v5_mr7-36" value="" style="endArrow=classic;html=1;rounded=0;exitX=0.5;exitY=0;exitDx=0;exitDy=0;entryX=0.5;entryY=1;entryDx=0;entryDy=0;" edge="1" parent="1" source="bw0vgnl-zwQ5R-v5_mr7-35" target="bw0vgnl-zwQ5R-v5_mr7-33">
          <mxGeometry width="50" height="50" relative="1" as="geometry">
            <mxPoint x="270" y="290" as="sourcePoint" />
            <mxPoint x="320" y="240" as="targetPoint" />
          </mxGeometry>
        </mxCell>
        <mxCell id="bw0vgnl-zwQ5R-v5_mr7-42" value="" style="edgeStyle=orthogonalEdgeStyle;rounded=0;orthogonalLoop=1;jettySize=auto;html=1;" edge="1" parent="1" source="bw0vgnl-zwQ5R-v5_mr7-37" target="bw0vgnl-zwQ5R-v5_mr7-39">
          <mxGeometry relative="1" as="geometry" />
        </mxCell>
        <mxCell id="bw0vgnl-zwQ5R-v5_mr7-37" value="Контроллеры" style="rounded=1;whiteSpace=wrap;html=1;fillColor=#f8cecc;strokeColor=#b85450;labelBackgroundColor=none;" vertex="1" parent="1">
          <mxGeometry x="120" y="520" width="120" height="40" as="geometry" />
        </mxCell>
        <mxCell id="bw0vgnl-zwQ5R-v5_mr7-67" value="" style="edgeStyle=orthogonalEdgeStyle;rounded=0;orthogonalLoop=1;jettySize=auto;html=1;entryX=0.014;entryY=0.164;entryDx=0;entryDy=0;entryPerimeter=0;dashed=1;" edge="1" parent="1" source="bw0vgnl-zwQ5R-v5_mr7-39" target="bw0vgnl-zwQ5R-v5_mr7-66">
          <mxGeometry relative="1" as="geometry" />
        </mxCell>
        <mxCell id="bw0vgnl-zwQ5R-v5_mr7-39" value="CanbanController" style="rounded=1;whiteSpace=wrap;html=1;fillColor=#e1d5e7;strokeColor=#9673a6;labelBackgroundColor=none;" vertex="1" parent="1">
          <mxGeometry x="280" y="520" width="120" height="40" as="geometry" />
        </mxCell>
        <mxCell id="bw0vgnl-zwQ5R-v5_mr7-47" value="" style="edgeStyle=orthogonalEdgeStyle;rounded=0;orthogonalLoop=1;jettySize=auto;html=1;" edge="1" parent="1" source="bw0vgnl-zwQ5R-v5_mr7-40" target="bw0vgnl-zwQ5R-v5_mr7-46">
          <mxGeometry relative="1" as="geometry" />
        </mxCell>
        <mxCell id="bw0vgnl-zwQ5R-v5_mr7-40" value="TaskController" style="rounded=1;whiteSpace=wrap;html=1;fillColor=#e1d5e7;strokeColor=#9673a6;labelBackgroundColor=none;" vertex="1" parent="1">
          <mxGeometry x="280" y="440" width="120" height="40" as="geometry" />
        </mxCell>
        <mxCell id="bw0vgnl-zwQ5R-v5_mr7-68" value="" style="edgeStyle=orthogonalEdgeStyle;rounded=0;orthogonalLoop=1;jettySize=auto;html=1;entryX=0.014;entryY=0.83;entryDx=0;entryDy=0;entryPerimeter=0;dashed=1;" edge="1" parent="1" source="bw0vgnl-zwQ5R-v5_mr7-41" target="bw0vgnl-zwQ5R-v5_mr7-66">
          <mxGeometry relative="1" as="geometry" />
        </mxCell>
        <mxCell id="bw0vgnl-zwQ5R-v5_mr7-41" value="AccountController" style="rounded=1;whiteSpace=wrap;html=1;fillColor=#e1d5e7;strokeColor=#9673a6;labelBackgroundColor=none;" vertex="1" parent="1">
          <mxGeometry x="280" y="600" width="120" height="40" as="geometry" />
        </mxCell>
        <mxCell id="bw0vgnl-zwQ5R-v5_mr7-43" value="" style="endArrow=classic;html=1;rounded=0;exitX=0.5;exitY=0;exitDx=0;exitDy=0;entryX=0;entryY=0.5;entryDx=0;entryDy=0;" edge="1" parent="1" source="bw0vgnl-zwQ5R-v5_mr7-37" target="bw0vgnl-zwQ5R-v5_mr7-40">
          <mxGeometry width="50" height="50" relative="1" as="geometry">
            <mxPoint x="420" y="480" as="sourcePoint" />
            <mxPoint x="470" y="430" as="targetPoint" />
            <Array as="points">
              <mxPoint x="180" y="460" />
            </Array>
          </mxGeometry>
        </mxCell>
        <mxCell id="bw0vgnl-zwQ5R-v5_mr7-44" value="" style="endArrow=classic;html=1;rounded=0;exitX=0.5;exitY=1;exitDx=0;exitDy=0;entryX=0;entryY=0.5;entryDx=0;entryDy=0;" edge="1" parent="1" source="bw0vgnl-zwQ5R-v5_mr7-37" target="bw0vgnl-zwQ5R-v5_mr7-41">
          <mxGeometry width="50" height="50" relative="1" as="geometry">
            <mxPoint x="420" y="480" as="sourcePoint" />
            <mxPoint x="470" y="430" as="targetPoint" />
            <Array as="points">
              <mxPoint x="180" y="620" />
            </Array>
          </mxGeometry>
        </mxCell>
        <mxCell id="bw0vgnl-zwQ5R-v5_mr7-46" value="Методы" style="rounded=1;whiteSpace=wrap;html=1;fillColor=#fff2cc;strokeColor=#d6b656;labelBackgroundColor=none;" vertex="1" parent="1">
          <mxGeometry x="440" y="440" width="120" height="40" as="geometry" />
        </mxCell>
        <mxCell id="bw0vgnl-zwQ5R-v5_mr7-48" value="tasks/gettask" style="rounded=1;whiteSpace=wrap;html=1;fillColor=#fff2cc;strokeColor=#d6b656;labelBackgroundColor=none;" vertex="1" parent="1">
          <mxGeometry x="600" y="400" width="120" height="40" as="geometry" />
        </mxCell>
        <mxCell id="bw0vgnl-zwQ5R-v5_mr7-49" value="tasks/getall" style="rounded=1;whiteSpace=wrap;html=1;fillColor=#fff2cc;strokeColor=#d6b656;labelBackgroundColor=none;" vertex="1" parent="1">
          <mxGeometry x="600" y="320" width="120" height="40" as="geometry" />
        </mxCell>
        <mxCell id="bw0vgnl-zwQ5R-v5_mr7-50" value="tasks/createtask" style="rounded=1;whiteSpace=wrap;html=1;fillColor=#fff2cc;strokeColor=#d6b656;labelBackgroundColor=none;" vertex="1" parent="1">
          <mxGeometry x="600" y="480" width="120" height="40" as="geometry" />
        </mxCell>
        <mxCell id="bw0vgnl-zwQ5R-v5_mr7-51" value="tasks/deletetask" style="rounded=1;whiteSpace=wrap;html=1;fillColor=#fff2cc;strokeColor=#d6b656;labelBackgroundColor=none;" vertex="1" parent="1">
          <mxGeometry x="600" y="560" width="120" height="40" as="geometry" />
        </mxCell>
        <mxCell id="bw0vgnl-zwQ5R-v5_mr7-52" value="" style="endArrow=classic;html=1;rounded=0;exitX=0.5;exitY=0;exitDx=0;exitDy=0;entryX=0;entryY=0.5;entryDx=0;entryDy=0;" edge="1" parent="1" source="bw0vgnl-zwQ5R-v5_mr7-46" target="bw0vgnl-zwQ5R-v5_mr7-49">
          <mxGeometry width="50" height="50" relative="1" as="geometry">
            <mxPoint x="520" y="570" as="sourcePoint" />
            <mxPoint x="570" y="520" as="targetPoint" />
            <Array as="points">
              <mxPoint x="500" y="340" />
            </Array>
          </mxGeometry>
        </mxCell>
        <mxCell id="bw0vgnl-zwQ5R-v5_mr7-53" value="" style="endArrow=classic;html=1;rounded=0;exitX=0.5;exitY=1;exitDx=0;exitDy=0;entryX=0;entryY=0.5;entryDx=0;entryDy=0;" edge="1" parent="1" source="bw0vgnl-zwQ5R-v5_mr7-46" target="bw0vgnl-zwQ5R-v5_mr7-51">
          <mxGeometry width="50" height="50" relative="1" as="geometry">
            <mxPoint x="510" y="450" as="sourcePoint" />
            <mxPoint x="610" y="350" as="targetPoint" />
            <Array as="points">
              <mxPoint x="500" y="580" />
            </Array>
          </mxGeometry>
        </mxCell>
        <mxCell id="bw0vgnl-zwQ5R-v5_mr7-54" value="" style="endArrow=classic;html=1;rounded=0;exitX=1;exitY=0.5;exitDx=0;exitDy=0;entryX=0;entryY=0.5;entryDx=0;entryDy=0;" edge="1" parent="1" source="bw0vgnl-zwQ5R-v5_mr7-46" target="bw0vgnl-zwQ5R-v5_mr7-48">
          <mxGeometry width="50" height="50" relative="1" as="geometry">
            <mxPoint x="520" y="460" as="sourcePoint" />
            <mxPoint x="620" y="360" as="targetPoint" />
            <Array as="points">
              <mxPoint x="580" y="460" />
              <mxPoint x="580" y="420" />
            </Array>
          </mxGeometry>
        </mxCell>
        <mxCell id="bw0vgnl-zwQ5R-v5_mr7-55" value="" style="endArrow=classic;html=1;rounded=0;exitX=1;exitY=0.5;exitDx=0;exitDy=0;entryX=0;entryY=0.5;entryDx=0;entryDy=0;" edge="1" parent="1" source="bw0vgnl-zwQ5R-v5_mr7-46" target="bw0vgnl-zwQ5R-v5_mr7-50">
          <mxGeometry width="50" height="50" relative="1" as="geometry">
            <mxPoint x="570" y="470" as="sourcePoint" />
            <mxPoint x="610" y="430" as="targetPoint" />
            <Array as="points">
              <mxPoint x="580" y="460" />
              <mxPoint x="580" y="500" />
            </Array>
          </mxGeometry>
        </mxCell>
        <mxCell id="bw0vgnl-zwQ5R-v5_mr7-56" value="Запросы" style="rounded=1;whiteSpace=wrap;html=1;fillColor=#f5f5f5;strokeColor=#666666;labelBackgroundColor=none;fontColor=#333333;" vertex="1" parent="1">
          <mxGeometry x="760" y="440" width="120" height="40" as="geometry" />
        </mxCell>
        <mxCell id="bw0vgnl-zwQ5R-v5_mr7-57" value="" style="endArrow=classic;html=1;rounded=0;exitX=0.5;exitY=0;exitDx=0;exitDy=0;entryX=1;entryY=0.5;entryDx=0;entryDy=0;" edge="1" parent="1" source="bw0vgnl-zwQ5R-v5_mr7-56" target="bw0vgnl-zwQ5R-v5_mr7-49">
          <mxGeometry width="50" height="50" relative="1" as="geometry">
            <mxPoint x="860" y="440" as="sourcePoint" />
            <mxPoint x="960" y="340" as="targetPoint" />
            <Array as="points">
              <mxPoint x="820" y="340" />
            </Array>
          </mxGeometry>
        </mxCell>
        <mxCell id="bw0vgnl-zwQ5R-v5_mr7-61" value="" style="endArrow=classic;html=1;rounded=0;exitX=0.5;exitY=1;exitDx=0;exitDy=0;entryX=1;entryY=0.5;entryDx=0;entryDy=0;" edge="1" parent="1" source="bw0vgnl-zwQ5R-v5_mr7-56" target="bw0vgnl-zwQ5R-v5_mr7-51">
          <mxGeometry width="50" height="50" relative="1" as="geometry">
            <mxPoint x="490" y="470" as="sourcePoint" />
            <mxPoint x="540" y="420" as="targetPoint" />
            <Array as="points">
              <mxPoint x="820" y="580" />
            </Array>
          </mxGeometry>
        </mxCell>
        <mxCell id="bw0vgnl-zwQ5R-v5_mr7-62" value="" style="endArrow=classic;html=1;rounded=0;exitX=0;exitY=0.5;exitDx=0;exitDy=0;entryX=1;entryY=0.5;entryDx=0;entryDy=0;" edge="1" parent="1" source="bw0vgnl-zwQ5R-v5_mr7-56" target="bw0vgnl-zwQ5R-v5_mr7-48">
          <mxGeometry width="50" height="50" relative="1" as="geometry">
            <mxPoint x="490" y="470" as="sourcePoint" />
            <mxPoint x="540" y="420" as="targetPoint" />
            <Array as="points">
              <mxPoint x="740" y="460" />
              <mxPoint x="740" y="420" />
            </Array>
          </mxGeometry>
        </mxCell>
        <mxCell id="bw0vgnl-zwQ5R-v5_mr7-63" value="" style="endArrow=classic;html=1;rounded=0;exitX=0;exitY=0.5;exitDx=0;exitDy=0;entryX=1;entryY=0.5;entryDx=0;entryDy=0;" edge="1" parent="1" source="bw0vgnl-zwQ5R-v5_mr7-56" target="bw0vgnl-zwQ5R-v5_mr7-50">
          <mxGeometry width="50" height="50" relative="1" as="geometry">
            <mxPoint x="490" y="470" as="sourcePoint" />
            <mxPoint x="540" y="420" as="targetPoint" />
            <Array as="points">
              <mxPoint x="740" y="460" />
              <mxPoint x="740" y="500" />
            </Array>
          </mxGeometry>
        </mxCell>
        <mxCell id="bw0vgnl-zwQ5R-v5_mr7-65" value="" style="edgeStyle=orthogonalEdgeStyle;rounded=0;orthogonalLoop=1;jettySize=auto;html=1;" edge="1" parent="1" source="bw0vgnl-zwQ5R-v5_mr7-64" target="bw0vgnl-zwQ5R-v5_mr7-56">
          <mxGeometry relative="1" as="geometry" />
        </mxCell>
        <mxCell id="bw0vgnl-zwQ5R-v5_mr7-64" value="Frontend" style="rounded=1;whiteSpace=wrap;html=1;fillColor=#f5f5f5;strokeColor=#666666;labelBackgroundColor=none;fontColor=#333333;" vertex="1" parent="1">
          <mxGeometry x="920" y="440" width="120" height="40" as="geometry" />
        </mxCell>
        <mxCell id="bw0vgnl-zwQ5R-v5_mr7-66" value="" style="rounded=1;whiteSpace=wrap;html=1;fillColor=#f5f5f5;strokeColor=#666666;labelBackgroundColor=none;fontColor=#333333;" vertex="1" parent="1">
          <mxGeometry x="440" y="520" width="40" height="120" as="geometry" />
        </mxCell>
      </root>
    </mxGraphModel>
  </diagram>
</mxfile>
